# xmcd
#
# Track frame offsets: 
#        150
#        14225
#        30097
#        47070
#        106493
#        176325
#        203617
#
# Disc length: 4244 seconds
#
# Revision: 0
# Processed by: cddbd v1.5.2PL0 Copyright (c) Steve Scherf et al.
# Submitted via: ExactAudioCopy v0.95b4
#
DISCID=50109207
DTITLE=Lonnie Holley - Just Before Music (Dust-to-Digital Nov 2012)
DYEAR=2012
DGENRE=Avantgarde
TTITLE0=Looking For All (All Rendered Truth) (Lonnie Holley, rec. 2010
TTITLE0=)
TTITLE1=Here I Stand Knocking At Your Door (Lonnie Holley, rec. 2010)
TTITLE2=Mama's Little Baby (Lonnie Holley, rec. 2010)
TTITLE3=The End Of The Film Era (Lonnie Holley, rec. 2010)
TTITLE4=Fith Child Burning (Lonnie Holley, rec. 2011)
TTITLE5=Earthly Things (Lonnie Holley, rec. 2010)
TTITLE6=Planet Earth And Otherwheres (Lonnie Holley, rec. 2010)
EXTD=
EXTT0=
EXTT1=
EXTT2=
EXTT3=
EXTT4=
EXTT5=
EXTT6=
PLAYORDER=
